<svg width="88" height="74" viewBox="0 0 88 74" fill="none" xmlns="http://www.w3.org/2000/svg">
  <circle cx="44" cy="38" r="31" fill="#F8F3EC" stroke="#1F4F79" stroke-width="3"/>
  <path d="M15 31 29 12l8 12 9-17 27 31H15Z" fill="#EAF3F8" stroke="#1F4F79" stroke-width="2.4" stroke-linejoin="round"/>
  <path d="m28 13 5 16 4-5 7 14 5-14 9 11" stroke="#FF5B2E" stroke-width="2.2" stroke-linecap="round" stroke-linejoin="round"/>
  <path d="M29 44c2-10 14-15 24-8 4 3 7 7 10 9 4 3 7 1 9-1" stroke="#274F78" stroke-width="4" stroke-linecap="round"/>
  <path d="M22 46c5 0 7-5 11-7 5-3 11 0 13 5 2 4 0 10-5 12-9 5-17-2-19-10Z" fill="#C98E45"/>
  <circle cx="34" cy="42" r="2.2" fill="#272727"/>
  <path d="M45 49c4 3 8 3 12 1" stroke="#272727" stroke-width="2" stroke-linecap="round"/>
  <text x="44" y="70" text-anchor="middle" font-family="Arial, sans-serif" font-size="7" font-weight="700" fill="#1F4F79">HIMALAYAN PET</text>
</svg>
